<svg xmlns="http://www.w3.org/2000/svg" xmlns:xlink="http://www.w3.org/1999/xlink" viewBox="0 0 366.43 141.8"><defs><style>.a{font-size:17px;font-family:Optima-Bold, Optima;font-weight:700;letter-spacing:0.79em;}.a,.d{fill:#4f107a;}.b{letter-spacing:0.74em;}.c{letter-spacing:0.13em;}.e{fill:url(#a);}</style><linearGradient id="a" x1="79.36" y1="51.79" x2="319.09" y2="51.79" gradientUnits="userSpaceOnUse"><stop offset="0" stop-color="#939598"/><stop offset="0.51" stop-color="#fff"/><stop offset="1" stop-color="gray"/></linearGradient></defs><text class="a" transform="translate(0 129.58)">BIOSCIENCES<tspan class="b" x="253.5" y="0">,</tspan><tspan class="c" x="270.81" y="0"> </tspan><tspan x="277.76" y="0">INC.</tspan></text><path class="d" d="M2,43.29q-.27-6.84-.59-14c1.72.14,3.46.27,5.22.38s3.51.16,5.23.16c.86,0,1.9,0,3.12-.11s2.47-.12,3.72-.16,2.47-.09,3.61-.16,2.12-.11,2.92-.11c1.07,0,2.4,0,4,.11a32.46,32.46,0,0,1,5,.65,27.51,27.51,0,0,1,5.22,1.61,14.77,14.77,0,0,1,4.69,3.13A15.43,15.43,0,0,1,47.58,40a19.62,19.62,0,0,1,1.29,7.59q0,7.13-3.07,11.54A22.38,22.38,0,0,1,38.25,66a30,30,0,0,1-9.48,3.34,53.65,53.65,0,0,1-8.89.86c-1.66,0-3.17,0-4.53-.05s-2.77-.13-4.2-.28v5.93c0,4.75.08,9.42.27,14s.37,9.12.59,13.58c-1.66-.15-3.41-.22-5.28-.22s-3.63.07-5.28.22Q1.77,96.69,2,89.8t.27-14V57.24Q2.31,50.13,2,43.29ZM18.8,66.19a33.47,33.47,0,0,0,6.9-.75,18.39,18.39,0,0,0,6.52-2.75,15.14,15.14,0,0,0,4.85-5.5,19,19,0,0,0,1.88-9,18.75,18.75,0,0,0-1.29-7.54,10.66,10.66,0,0,0-3.61-4.53,14.11,14.11,0,0,0-5.66-2.21,44,44,0,0,0-7.54-.59h-9.7v32A33.53,33.53,0,0,0,18.8,66.19Z"/><path class="d" d="M177.62,100.84a27.81,27.81,0,0,1-5.07,1.83c-2,.55-4.19,1-6.63,1.46a44,44,0,0,1-7.65.65,49.1,49.1,0,0,1-15.74-2.43A33.09,33.09,0,0,1,130.08,95a34.85,34.85,0,0,1-8.19-12.13,42.48,42.48,0,0,1-3-16.32,42.53,42.53,0,0,1,3-16.33,34.26,34.26,0,0,1,8.3-12.13A35.84,35.84,0,0,1,143,30.52a49.47,49.47,0,0,1,16.39-2.59,54.09,54.09,0,0,1,13,1.45,60.5,60.5,0,0,1,10.4,3.51A14,14,0,0,0,181.33,37c-.35,1.73-.64,3.16-.86,4.31l-.64.22a24.52,24.52,0,0,0-3-2.91,32.84,32.84,0,0,0-4.53-3.13,28.69,28.69,0,0,0-5.82-2.53,23.49,23.49,0,0,0-7.11-1,33.32,33.32,0,0,0-11.8,2,25.22,25.22,0,0,0-9.49,6.31,29.33,29.33,0,0,0-6.3,10.78,47.25,47.25,0,0,0-2.27,15.47A47.23,47.23,0,0,0,131.76,82a29.33,29.33,0,0,0,6.3,10.78,25.22,25.22,0,0,0,9.49,6.31,33.32,33.32,0,0,0,11.8,2,25,25,0,0,0,7.16-1,37.21,37.21,0,0,0,6-2.31,36.41,36.41,0,0,0,5-2.91c1.47-1,2.71-2,3.72-2.75l.43.43-1,6.36A14.25,14.25,0,0,1,177.62,100.84Z"/><path class="d" d="M196.58,43.29q-.26-6.84-.59-14c.94.14,1.84.27,2.7.38a21,21,0,0,0,5.17,0c.86-.11,1.76-.24,2.7-.38q-.33,7.11-.6,14t-.27,14V75.78q0,7.13.27,14t.6,13.58c-1.66-.15-3.42-.22-5.28-.22s-3.64.07-5.29.22q.33-6.69.59-13.58t.28-14V57.24Q196.86,50.13,196.58,43.29Z"/><path class="d" d="M224.52,43.29q-.27-6.84-.59-14,3.12.21,6.14.38c2,.1,4.06.16,6.14.16s4.13-.09,6.15-.27,4.06-.27,6.14-.27a42.07,42.07,0,0,1,8.62.86,21.09,21.09,0,0,1,7.17,2.86,14.38,14.38,0,0,1,4.85,5.22,16.61,16.61,0,0,1,1.78,8.09,16.42,16.42,0,0,1-2.32,8.89,21.39,21.39,0,0,1-5.66,6.14,27.94,27.94,0,0,1-7.16,3.78,35.39,35.39,0,0,1-7,1.77c.87,1.08,2.05,2.59,3.56,4.53s3.2,4.08,5.06,6.41,3.81,4.79,5.83,7.33,4,5,5.82,7.33S272.71,97,274.37,99s3,3.41,4,4.42a23.52,23.52,0,0,0-3.24-.22h-6.36a21,21,0,0,0-3.12.22c-1.08-1.51-2.71-3.78-4.91-6.79s-4.61-6.25-7.27-9.7-5.38-6.88-8.14-10.3-5.3-6.3-7.6-8.67h-4.09v7.86q0,7.13.27,14t.59,13.58c-1.66-.15-3.42-.22-5.28-.22s-3.63.07-5.28.22q.31-6.69.59-13.58t.27-14V57.24Q224.79,50.13,224.52,43.29Zm12.39,20.53c1.19.07,2.5.11,3.94.11a33.57,33.57,0,0,0,7-.76,20,20,0,0,0,6.63-2.64,15.63,15.63,0,0,0,5-5.06,14.87,14.87,0,0,0,2-8,13.93,13.93,0,0,0-1.56-6.95,12.43,12.43,0,0,0-4-4.37,15.44,15.44,0,0,0-5.39-2.21,28.91,28.91,0,0,0-5.71-.59q-3.78,0-6.25.16c-1.66.11-3.06.23-4.21.38q-.21,5.93-.43,11.74t-.21,11.64v6.15A22.49,22.49,0,0,0,236.91,63.82Z"/><path class="e" d="M351.43,102.63c-169-231.47-303.56,1-303.56,1s136.69-208.52,303.56-1Z"/><path class="d" d="M112.19,95.83q-2.2-5-5-11.26t-5.88-13.64q-3.12-7.32-6.25-14.76T89,41.46q-3-7.29-5.61-13.53h-2q-8.4,19.29-16.7,37.94t-17,37.51a36.2,36.2,0,0,1,8,0q1.41-5,4.21-12.56,2.67-7.26,5.94-15.25h0l2.75-6.52L79.8,42.48l12,27.37,2,6.14h0c.8,2,1.64,4.11,2.55,6.31q1.61,3.95,3.18,7.76c1,2.56,2,5,2.85,7.33s1.55,4.34,2,6a19.34,19.34,0,0,1,2.86-.22H113a19.31,19.31,0,0,1,2.85.22C114.87,101.65,113.66,99.14,112.19,95.83Z"/><path class="d" d="M348.87,95.83q-2.21-5-4.95-11.26T338,70.93q-3.12-7.32-6.25-14.76t-6.14-14.71q-3-7.29-5.61-13.53h-2q-8.42,19.29-16.71,37.94t-17,37.51a36.2,36.2,0,0,1,8,0q1.41-5,4.21-12.56,2.67-7.26,5.94-15.25h-.05l2.75-6.52,11.41-26.57,12,27.37,2,6.14h0c.8,2,1.64,4.11,2.55,6.31q1.61,3.95,3.18,7.76T339,97.39c.86,2.34,1.55,4.34,2.05,6a19.44,19.44,0,0,1,2.86-.22h5.71a19.21,19.21,0,0,1,2.85.22C351.55,101.65,350.35,99.14,348.87,95.83Z"/></svg>