<svg xmlns="http://www.w3.org/2000/svg" viewBox="0 0 300 113.7"><defs><style>.a{fill:#fff;}</style></defs><path class="a" d="M.2,104.8v-2.1a12.1,12.1,0,0,0-.1-1.9.9.9,0,0,1,.5.1H3.9a4.87,4.87,0,0,1,1.2.1,1.88,1.88,0,0,1,.9.4,1.34,1.34,0,0,1,.6.7,2.6,2.6,0,0,1,0,2,4.35,4.35,0,0,1-.6.7,2,2,0,0,1-.8.4,2.54,2.54,0,0,1-.7.2h0a3.09,3.09,0,0,1,.8.2,3.55,3.55,0,0,1,.9.4,2.34,2.34,0,0,1,.7.7,2,2,0,0,1,.3,1.1,2.5,2.5,0,0,1-.3,1.3,1.76,1.76,0,0,1-.8.9,3.7,3.7,0,0,1-1.1.5,5.28,5.28,0,0,1-1.3.1H0c0-.6.1-1.2.1-1.8v-4Zm4.4-1.5a1.7,1.7,0,0,0-.1-.7c-.1-.2-.1-.4-.3-.5a2.18,2.18,0,0,0-.5-.4,1.48,1.48,0,0,0-.7-.1H2.3V105H3a1.27,1.27,0,0,0,.6-.1,2.19,2.19,0,0,0,.5-.3,1.27,1.27,0,0,0,.4-.6C4.6,103.9,4.6,103.6,4.6,103.3Zm.1,4.7a2.07,2.07,0,0,0-.5-1.5,1.73,1.73,0,0,0-1.3-.5H2.3v3.9h.8a1.27,1.27,0,0,0,.6-.1,1,1,0,0,0,.5-.4c.1-.2.3-.4.3-.6A1.08,1.08,0,0,0,4.7,108Z"/><path class="a" d="M20.5,102.7a12.1,12.1,0,0,0-.1-1.9.9.9,0,0,1,.5.1h1.4a.75.75,0,0,0,.5-.1c0,.6-.1,1.3-.1,1.9v6.2a10.87,10.87,0,0,0,.1,1.8H20.4c0-.6.1-1.2.1-1.8v-4.1A7.35,7.35,0,0,0,20.5,102.7Z"/><path class="a" d="M36,105.8a4.48,4.48,0,0,1,.4-2,6.19,6.19,0,0,1,1.1-1.7,5.44,5.44,0,0,1,1.8-1.1,5.87,5.87,0,0,1,2.3-.4,7.8,7.8,0,0,1,2.2.3,3.67,3.67,0,0,1,1.7,1,4.81,4.81,0,0,1,1.2,1.6,5.56,5.56,0,0,1,.4,2.3,4.48,4.48,0,0,1-.4,2,6.45,6.45,0,0,1-1.1,1.6,6.19,6.19,0,0,1-1.7,1.1,5.38,5.38,0,0,1-2.2.4,7.8,7.8,0,0,1-2.2-.3,5.08,5.08,0,0,1-1.8-.9,4.81,4.81,0,0,1-1.2-1.6A5.21,5.21,0,0,1,36,105.8Zm8.7-.3a8.81,8.81,0,0,0-.2-1.7c-.2-.5-.4-.9-.6-1.3a3.92,3.92,0,0,0-1-.8,2.77,2.77,0,0,0-1.3-.3,2,2,0,0,0-1.3.4,3.18,3.18,0,0,0-1,1,3.51,3.51,0,0,0-.6,1.4,8.81,8.81,0,0,0-.2,1.7,11.24,11.24,0,0,0,.2,2,4,4,0,0,0,.7,1.3,2.29,2.29,0,0,0,1,.7,5,5,0,0,0,1.2.2,2.38,2.38,0,0,0,1.2-.3,3.92,3.92,0,0,0,1-.8,6.11,6.11,0,0,0,.7-1.4A13.61,13.61,0,0,0,44.7,105.5Z"/><path class="a" d="M62.9,101.5a1.5,1.5,0,0,0-1.1.4,1.34,1.34,0,0,0-.1,1.8,5.55,5.55,0,0,0,.8.6,3.7,3.7,0,0,0,1.1.5c.4.2.7.4,1.1.6a2.36,2.36,0,0,1,.8.9,2.9,2.9,0,0,1,.3,1.4,2.77,2.77,0,0,1-.3,1.3,2.54,2.54,0,0,1-.8,1,3.46,3.46,0,0,1-1.2.7,4.14,4.14,0,0,1-1.6.2,5.9,5.9,0,0,1-1.4-.2,1.88,1.88,0,0,1-.9-.4,2.92,2.92,0,0,0,.2-.9c.1-.3.1-.6.2-.9h.3a1.42,1.42,0,0,0,.2.6,1,1,0,0,0,.4.5c.2.1.4.3.6.3a2,2,0,0,0,.8.1,1.7,1.7,0,0,0,1.3-.4,1.28,1.28,0,0,0,.4-1,1.22,1.22,0,0,0-.3-.9,5.55,5.55,0,0,0-.8-.6,4.67,4.67,0,0,0-1-.5,8.79,8.79,0,0,1-1-.6,2.36,2.36,0,0,1-.8-.9,2.9,2.9,0,0,1-.3-1.4,2.77,2.77,0,0,1,.3-1.3,3.59,3.59,0,0,1,.7-1,2.07,2.07,0,0,1,1-.6,5,5,0,0,1,1.2-.2,5.9,5.9,0,0,1,1.4.2,3.13,3.13,0,0,1,1,.5,1.42,1.42,0,0,0-.2.6c-.1.2-.1.5-.2.8h-.2A2,2,0,0,0,62.9,101.5Z"/><path class="a" d="M86.8,109.7a1.27,1.27,0,0,0-.1.6,6.68,6.68,0,0,1-3,.6,5.87,5.87,0,0,1-2.3-.4,4.78,4.78,0,0,1-1.7-1,4.18,4.18,0,0,1-1.1-1.5,5.85,5.85,0,0,1-.4-1.9,6.69,6.69,0,0,1,.5-2.6,3.71,3.71,0,0,1,1.3-1.7,5.24,5.24,0,0,1,1.8-1,7.8,7.8,0,0,1,2.2-.3,2.2,2.2,0,0,1,.8.1,1.88,1.88,0,0,1,.8.2,6.37,6.37,0,0,1,.7.2l.6.3a1.85,1.85,0,0,0-.2.7,1.7,1.7,0,0,0-.1.7h-.2a3.33,3.33,0,0,0-1.1-1,2.9,2.9,0,0,0-1.4-.3,2.66,2.66,0,0,0-1.2.3,3.83,3.83,0,0,0-1.1.8,4.68,4.68,0,0,0-.8,1.4,6,6,0,0,0-.3,2,5.41,5.41,0,0,0,.3,1.9,4.11,4.11,0,0,0,.8,1.3,2.59,2.59,0,0,0,1.1.7,2.54,2.54,0,0,0,1.2.2,1.7,1.7,0,0,0,.7-.1c.2-.1.5-.1.7-.2s.5-.2.7-.3a2.18,2.18,0,0,0,.5-.4l.2.1C86.9,109.3,86.8,109.5,86.8,109.7Z"/><path class="a" d="M100.3,102.7a12.1,12.1,0,0,0-.1-1.9.9.9,0,0,1,.5.1h1.4a.75.75,0,0,0,.5-.1c0,.6-.1,1.3-.1,1.9v6.2a10.87,10.87,0,0,0,.1,1.8h-2.4c0-.6.1-1.2.1-1.8v-4.1A14.64,14.64,0,0,0,100.3,102.7Z"/><path class="a" d="M116.4,102.7a12.1,12.1,0,0,0-.1-1.9h4.5a2.81,2.81,0,0,0,1.1-.1c0,.2-.1.4-.1.6v.7a2.77,2.77,0,0,1-.9-.1,3.4,3.4,0,0,1-1-.1h-1.3c0,.5-.1,1.1-.1,1.6V105h1.7a9.15,9.15,0,0,0,1.6-.1c0,.2-.1.3-.1.4v.5a.76.76,0,0,0,.1.4c-1.1-.1-2.2-.1-3.3-.1v3.6h1.7c.6,0,1.1-.1,1.7-.1v1.3h-5.7c0-.6.1-1.2.1-1.8V105A6.2,6.2,0,0,0,116.4,102.7Z"/><path class="a" d="M135.5,103.7v-2.9a2.5,2.5,0,0,0,1.4,0c1.1,1.2,2.1,2.3,3.1,3.5l3.2,3.5v-6.4c0-.3,0-.5-.1-.6a2.5,2.5,0,0,0,1.4,0c0,.9-.1,1.7-.1,2.4s-.1,1.4-.1,2v5.6h-1.2c-2-2.3-4.1-4.7-6.3-7v7h-1.3a3.22,3.22,0,0,1,.1-.8c0-.5.1-1.1.1-1.7s.1-1.4.1-2.2A7.16,7.16,0,0,1,135.5,103.7Z"/><path class="a" d="M165.8,109.7a1.27,1.27,0,0,0-.1.6,6.68,6.68,0,0,1-3,.6,5.87,5.87,0,0,1-2.3-.4,4.78,4.78,0,0,1-1.7-1,4.18,4.18,0,0,1-1.1-1.5,5.85,5.85,0,0,1-.4-1.9,6.69,6.69,0,0,1,.5-2.6,3.71,3.71,0,0,1,1.3-1.7,5.24,5.24,0,0,1,1.8-1,7.8,7.8,0,0,1,2.2-.3,2.2,2.2,0,0,1,.8.1,1.88,1.88,0,0,1,.8.2,6.37,6.37,0,0,1,.7.2l.6.3a1.85,1.85,0,0,0-.2.7,1.7,1.7,0,0,0-.1.7h-.2a3.33,3.33,0,0,0-1.1-1,2.9,2.9,0,0,0-1.4-.3,2.66,2.66,0,0,0-1.2.3,3.83,3.83,0,0,0-1.1.8,4.68,4.68,0,0,0-.8,1.4,6,6,0,0,0-.3,2,5.41,5.41,0,0,0,.3,1.9,4.11,4.11,0,0,0,.8,1.3,2.59,2.59,0,0,0,1.1.7,2.54,2.54,0,0,0,1.2.2,1.7,1.7,0,0,0,.7-.1c.2-.1.5-.1.7-.2s.5-.2.7-.3a2.18,2.18,0,0,0,.5-.4l.2.1C165.9,109.3,165.8,109.5,165.8,109.7Z"/><path class="a" d="M179.1,102.7a12.1,12.1,0,0,0-.1-1.9h4.5a2.81,2.81,0,0,0,1.1-.1c0,.2-.1.4-.1.6v.7a2.77,2.77,0,0,1-.9-.1,3.4,3.4,0,0,1-1-.1h-1.3c0,.5-.1,1.1-.1,1.6V105h1.7a9.15,9.15,0,0,0,1.6-.1c0,.2-.1.3-.1.4v.5a.76.76,0,0,0,.1.4c-1.1-.1-2.2-.1-3.3-.1v3.6h1.7c.6,0,1.1-.1,1.7-.1v1.3h-5.7c0-.6.1-1.2.1-1.8V105A9.55,9.55,0,0,0,179.1,102.7Z"/><path class="a" d="M200.5,101.5a1.5,1.5,0,0,0-1.1.4,1.34,1.34,0,0,0-.1,1.8,5.55,5.55,0,0,0,.8.6,3.7,3.7,0,0,0,1.1.5c.4.2.7.4,1.1.6a2.36,2.36,0,0,1,.8.9,2.9,2.9,0,0,1,.3,1.4,2.77,2.77,0,0,1-.3,1.3,2.54,2.54,0,0,1-.8,1,3.46,3.46,0,0,1-1.2.7,4.14,4.14,0,0,1-1.6.2,5.9,5.9,0,0,1-1.4-.2,1.88,1.88,0,0,1-.9-.4,2.92,2.92,0,0,0,.2-.9c.1-.3.1-.6.2-.9h.3a1.42,1.42,0,0,0,.2.6,1,1,0,0,0,.4.5c.2.1.4.3.6.3a2,2,0,0,0,.8.1,1.7,1.7,0,0,0,1.3-.4,1.28,1.28,0,0,0,.4-1,1.22,1.22,0,0,0-.3-.9,5.55,5.55,0,0,0-.8-.6,4.67,4.67,0,0,0-1-.5,8.79,8.79,0,0,1-1-.6,2.36,2.36,0,0,1-.8-.9,2.9,2.9,0,0,1-.3-1.4,2.77,2.77,0,0,1,.3-1.3,3.59,3.59,0,0,1,.7-1,2.07,2.07,0,0,1,1-.6,5,5,0,0,1,1.2-.2,5.9,5.9,0,0,1,1.4.2,3.13,3.13,0,0,1,1,.5,1.42,1.42,0,0,0-.2.6c-.1.2-.1.5-.2.8h-.2A2,2,0,0,0,200.5,101.5Z"/><path class="a" d="M216.4,110.8a7.17,7.17,0,0,1,.5-1.4,5.92,5.92,0,0,1,.4-.6,1.05,1.05,0,0,1,.9,0c.1,0,.2.1.3.2s.2.2.2.3.1.2.1.4a.37.37,0,0,1-.1.3c0,.1-.2.3-.3.6s-.4.6-.8,1.1-.8,1.2-1.4,2l-.4-.1A18.07,18.07,0,0,1,216.4,110.8Z"/><path class="a" d="M237.5,102.7a12.1,12.1,0,0,0-.1-1.9.9.9,0,0,1,.5.1h1.4a.75.75,0,0,0,.5-.1c0,.6-.1,1.3-.1,1.9v6.2a10.87,10.87,0,0,0,.1,1.8h-2.4c0-.6.1-1.2.1-1.8v-6.2Z"/><path class="a" d="M253.9,103.7v-2.9a2.5,2.5,0,0,0,1.4,0c1.1,1.2,2.1,2.3,3.1,3.5l3.2,3.5v-6.4c0-.3,0-.5-.1-.6a2.5,2.5,0,0,0,1.4,0c0,.9-.1,1.7-.1,2.4s-.1,1.4-.1,2v5.6h-1.2c-2-2.3-4.1-4.7-6.3-7v7h-1.3a3.22,3.22,0,0,1,.1-.8c0-.5.1-1.1.1-1.7s.1-1.4.1-2.2A7.16,7.16,0,0,1,253.9,103.7Z"/><path class="a" d="M284.2,109.7a1.27,1.27,0,0,0-.1.6,6.68,6.68,0,0,1-3,.6,5.87,5.87,0,0,1-2.3-.4,4.78,4.78,0,0,1-1.7-1A4.18,4.18,0,0,1,276,108a4.06,4.06,0,0,1-.4-1.9,6.69,6.69,0,0,1,.5-2.6,3.71,3.71,0,0,1,1.3-1.7,5.24,5.24,0,0,1,1.8-1,7.8,7.8,0,0,1,2.2-.3,2.2,2.2,0,0,1,.8.1c.3.1.6.1.8.2a6.37,6.37,0,0,1,.7.2l.6.3a1.85,1.85,0,0,0-.2.7,1.7,1.7,0,0,0-.1.7h-.2a3.33,3.33,0,0,0-1.1-1,2.9,2.9,0,0,0-1.4-.3,2.66,2.66,0,0,0-1.2.3,3.83,3.83,0,0,0-1.1.8,4.68,4.68,0,0,0-.8,1.4,6,6,0,0,0-.3,2,5.41,5.41,0,0,0,.3,1.9,4.11,4.11,0,0,0,.8,1.3,2.59,2.59,0,0,0,1.1.7,2.54,2.54,0,0,0,1.2.2,1.7,1.7,0,0,0,.7-.1c.2-.1.5-.1.7-.2s.5-.2.7-.3a2.18,2.18,0,0,0,.5-.4l.2.1C284.4,109.3,284.3,109.5,284.2,109.7Z"/><path class="a" d="M297.3,109.8a1,1,0,1,1,.3.8A1.14,1.14,0,0,1,297.3,109.8Z"/><path class="a" d="M.6,37C.4,33.1.3,29.1.1,25.1l4.5.3c1.5.1,3,.1,4.5.1.7,0,1.6,0,2.7-.1s2.1-.1,3.2-.1,2.1-.1,3.1-.1a23.55,23.55,0,0,1,2.5-.1c.9,0,2.1,0,3.4.1a22.22,22.22,0,0,1,4.3.6,25.89,25.89,0,0,1,4.5,1.4,11.79,11.79,0,0,1,4,2.7,12.51,12.51,0,0,1,2.9,4.4,17.27,17.27,0,0,1,1.1,6.5,17.53,17.53,0,0,1-2.6,9.9,18.94,18.94,0,0,1-6.4,5.9,26.19,26.19,0,0,1-8.1,2.9,44.61,44.61,0,0,1-7.6.7H12.2c-1.2,0-2.4-.1-3.6-.2v5.1c0,4.1.1,8,.2,12s.3,7.8.5,11.6c-1.4-.1-2.9-.2-4.5-.2s-3.1.1-4.5.2c.2-3.8.4-7.7.5-11.6s.2-7.9.2-12V49.3C.8,44.9.8,40.9.6,37ZM14.9,56.6a30.29,30.29,0,0,0,5.9-.6,16.19,16.19,0,0,0,5.6-2.3A11.79,11.79,0,0,0,30.5,49a16,16,0,0,0,1.6-7.7A16.36,16.36,0,0,0,31,34.9,9.3,9.3,0,0,0,27.9,31a11.53,11.53,0,0,0-4.8-1.9,41.58,41.58,0,0,0-6.4-.5H8.4V56A44.83,44.83,0,0,0,14.9,56.6Z"/><path class="a" d="M150.6,86.2a26.09,26.09,0,0,1-4.3,1.6,40.64,40.64,0,0,1-5.7,1.2,34.93,34.93,0,0,1-6.5.6,41.37,41.37,0,0,1-13.4-2.1,28.23,28.23,0,0,1-10.6-6.3,29.36,29.36,0,0,1-7-10.4,36.05,36.05,0,0,1-2.5-14,36.4,36.4,0,0,1,2.5-14,30.52,30.52,0,0,1,7.1-10.4A29.67,29.67,0,0,1,121.1,26a41.54,41.54,0,0,1,14-2.2A47.81,47.81,0,0,1,146.2,25a48.82,48.82,0,0,1,8.9,3,11.84,11.84,0,0,0-1.2,3.5c-.3,1.5-.6,2.7-.7,3.7l-.6.2a21.24,21.24,0,0,0-2.6-2.5,32.89,32.89,0,0,0-3.9-2.7,22.89,22.89,0,0,0-5-2.2,19.53,19.53,0,0,0-6.1-.9,30.15,30.15,0,0,0-10.1,1.7,22.17,22.17,0,0,0-8.1,5.4,25.19,25.19,0,0,0-5.4,9.2,40,40,0,0,0-1.9,13.2,40,40,0,0,0,1.9,13.2,25.19,25.19,0,0,0,5.4,9.2,22.17,22.17,0,0,0,8.1,5.4A27.84,27.84,0,0,0,135,86.1a23.67,23.67,0,0,0,6.1-.8,35.18,35.18,0,0,0,5.2-2,27.41,27.41,0,0,0,4.2-2.5c1.3-.9,2.3-1.7,3.2-2.3l.4.4-.8,5.4A8.51,8.51,0,0,1,150.6,86.2Z"/><path class="a" d="M166.8,37c-.2-3.9-.3-7.9-.5-11.9l2.3.3a24.25,24.25,0,0,0,4.4,0l2.3-.3c-.2,4.1-.4,8-.5,11.9s-.2,7.9-.2,11.9V64.7c0,4.1.1,8,.2,12s.3,7.8.5,11.6c-1.4-.1-2.9-.2-4.5-.2s-3.1.1-4.5.2c.2-3.8.4-7.7.5-11.6s.2-7.9.2-12V48.9C167.1,44.9,167,40.9,166.8,37Z"/><path class="a" d="M190.7,37c-.2-3.9-.3-7.9-.5-11.9l5.2.3c1.7.1,3.5.1,5.2.1s3.5-.1,5.3-.2a45.2,45.2,0,0,1,5.2-.2,35.74,35.74,0,0,1,7.4.7,18.53,18.53,0,0,1,6.1,2.4,11.89,11.89,0,0,1,4.1,4.5,14.1,14.1,0,0,1,1.5,6.9,14.34,14.34,0,0,1-2,7.6,17.15,17.15,0,0,1-4.8,5.2,21,21,0,0,1-6.1,3.2,26.88,26.88,0,0,1-5.9,1.5l3,3.9c1.3,1.7,2.7,3.5,4.3,5.5s3.3,4.1,5,6.3,3.4,4.3,5,6.3,3.1,3.8,4.5,5.5,2.5,2.9,3.4,3.8a24.58,24.58,0,0,0-2.8-.2h-5.5a24.52,24.52,0,0,0-2.7.2c-.9-1.3-2.3-3.2-4.2-5.8s-3.9-5.3-6.2-8.3-4.6-5.9-7-8.8-4.5-5.4-6.5-7.4h-3.5v6.7c0,4.1.1,8,.2,12s.3,7.8.5,11.6c-1.4-.1-2.9-.2-4.5-.2s-3.1.1-4.5.2c.2-3.8.4-7.7.5-11.6s.2-7.9.2-12V49C190.9,44.9,190.8,40.9,190.7,37Zm10.6,17.5c1,.1,2.1.1,3.4.1a30.29,30.29,0,0,0,5.9-.6,16.68,16.68,0,0,0,5.7-2.3,14.68,14.68,0,0,0,4.3-4.3,13.05,13.05,0,0,0,1.7-6.9,11.47,11.47,0,0,0-1.3-5.9,9.6,9.6,0,0,0-3.5-3.7,12.47,12.47,0,0,0-4.6-1.9,28.09,28.09,0,0,0-4.9-.5c-2.2,0-3.9,0-5.3.1s-2.6.2-3.6.3c-.1,3.4-.2,6.7-.4,10s-.2,6.6-.2,9.9v5.3A11.8,11.8,0,0,0,201.3,54.5Z"/><path class="a" d="M299.1,87.7c-144.4-197.8-259.4.8-259.4.8s116.9-178.2,259.4-.8Z"/><path class="a" d="M94.7,81.9q-2-4.2-4.2-9.6c-1.6-3.6-3.2-7.5-5-11.6s-3.6-8.4-5.3-12.6S76.7,39.7,75,35.5s-3.3-8-4.8-11.6H68.5c-4.8,11-9.5,21.8-14.3,32.4s-9.6,21.3-14.6,32c1-.1,2.2-.2,3.4-.2s2.4.1,3.4.2c.8-2.8,2-6.4,3.6-10.7,1.5-4.1,3.2-8.5,5.1-13h0L57.5,59l9.7-22.7L77.4,59.7l1.7,5.2h0c.7,1.7,1.4,3.5,2.2,5.4.9,2.2,1.8,4.5,2.7,6.6s1.7,4.3,2.4,6.3,1.3,3.7,1.8,5.1a23.2,23.2,0,0,1,2.4-.2h4.8a19.42,19.42,0,0,1,2.4.2C97,86.9,96,84.7,94.7,81.9Z"/><path class="a" d="M297,81.9q-2-4.2-4.2-9.6c-1.6-3.6-3.2-7.5-5-11.6s-3.6-8.4-5.3-12.6-3.5-8.4-5.2-12.6-3.3-8-4.8-11.6h-1.8c-4.8,11-9.5,21.8-14.3,32.4s-9.6,21.3-14.6,32c1-.1,2.2-.2,3.4-.2s2.4.1,3.4.2c.8-2.8,2-6.4,3.6-10.7,1.5-4.1,3.2-8.5,5.1-13h0l2.4-5.6,9.7-22.7,10.2,23.4,1.7,5.2h0c.7,1.7,1.4,3.5,2.2,5.4.9,2.2,1.8,4.5,2.7,6.6s1.7,4.3,2.4,6.3,1.3,3.7,1.8,5.1a23.2,23.2,0,0,1,2.4-.2h4.8a19.42,19.42,0,0,1,2.4.2A70.15,70.15,0,0,1,297,81.9Z"/></svg>