<svg xmlns="http://www.w3.org/2000/svg" xmlns:xlink="http://www.w3.org/1999/xlink" viewBox="0 0 558.66 342.88"><defs><style>.a{fill:#ede6f3;}.b{fill:#ccc;}.c{fill:url(#a);}</style><linearGradient id="a" x1="269.19" y1="342.75" x2="269.19" y2="103.24" gradientUnits="userSpaceOnUse"><stop offset="0" stop-color="#5d2d8c"/><stop offset="1" stop-color="#ed0180"/></linearGradient></defs><path class="a" d="M140.08.66h15.57C166.56.66,174,7,174,17.12s-7.48,16.46-18.39,16.46H140.08Zm15.19,25.49c5.6,0,9.36-3.34,9.36-9s-3.76-9-9.36-9H149.4V26.15Z"/><path class="a" d="M179.12,17.12C179.12,7.24,186.88,0,197.41,0S215.7,7.24,215.7,17.12s-7.76,17.12-18.29,17.12S179.12,27,179.12,17.12Zm27.18,0c0-5.69-3.9-9.41-8.89-9.41s-8.89,3.72-8.89,9.41,3.9,9.4,8.89,9.4S206.3,22.81,206.3,17.12Z"/><path class="a" d="M222.19,18.91V.66h9.31v18c0,5.65,2.36,7.9,6.26,7.9s6.21-2.25,6.21-7.9V.66h9.17V18.91c0,9.82-5.74,15.33-15.47,15.33S222.19,28.73,222.19,18.91Z"/><path class="a" d="M292.64,24.55c0,5.69-4.7,9-13.54,9H261.32V.66h16.83C286.81.66,291,4.19,291,9.26a7.76,7.76,0,0,1-4.42,7.15C290.34,17.73,292.64,20.55,292.64,24.55ZM270.54,7.38v6.35h6.39c3.11,0,4.71-1.08,4.71-3.2s-1.6-3.15-4.71-3.15Zm12.69,16.13c0-2.25-1.69-3.33-4.89-3.33h-7.8v6.67h7.8C281.54,26.85,283.23,25.77,283.23,23.51Z"/><path class="a" d="M299.36.66h9.32V26.2h15.7v7.38h-25Z"/><path class="a" d="M329.93.66h9.31V33.58h-9.31Z"/><path class="a" d="M379.07.66V33.58h-7.66L356.88,16V33.58h-9.13V.66h7.67L370,18.2V.66Z"/><path class="a" d="M409.59,16.41h8.23V30.05A24.49,24.49,0,0,1,404,34.24c-10.49,0-18.15-7.1-18.15-17.12S393.51,0,404.19,0c6.16,0,11.14,2.12,14.39,6l-5.93,5.36a10.27,10.27,0,0,0-8-3.67c-5.65,0-9.41,3.72-9.41,9.41s3.76,9.4,9.31,9.4a11.69,11.69,0,0,0,5-1.08Z"/><path class="a" d="M139.11,45H158c13.23,0,22.3,7.7,22.3,20s-9.07,20-22.3,20H139.11Zm18.42,30.91c6.78,0,11.35-4,11.35-11S164.31,54,157.53,54H150.4v21.9Z"/><path class="a" d="M186.44,64.91c0-12,9.41-20.75,22.18-20.75s22.18,8.78,22.18,20.75-9.41,20.76-22.18,20.76S186.44,76.89,186.44,64.91Zm33,0c0-6.9-4.73-11.4-10.78-11.4s-10.78,4.5-10.78,11.4,4.74,11.41,10.78,11.41S219.4,71.81,219.4,64.91Z"/><path class="a" d="M300.26,45,287.32,84.87H275.23l-7.64-24.29-8,24.29H247.51L234.57,45H246.2l8,25.49L262.68,45h10.38l8,25.72L289.48,45Z"/><path class="a" d="M344.57,45V84.87h-9.29L317.66,63.6V84.87H306.59V45h9.3l17.62,21.27V45Z"/><path class="b" d="M367.25,83.55V45.68h3.87V83.55Z"/><path class="b" d="M385.36,83.55V45.68h4l19.11,27.91,3,4.7V45.68h3.71V83.55h-4L392.08,56l-3-4.78V83.55Z"/><path class="c" d="M325.81,179.13a100.16,100.16,0,0,1-13.88,2.7V138.37a214.66,214.66,0,0,0,37.9-15A216,216,0,0,0,382,103.24h31.2V227.31A459,459,0,0,0,361.76,215V161.4a61.83,61.83,0,0,1-10.05,7.11,104.71,104.71,0,0,1-12.34,6.05A110.14,110.14,0,0,1,325.81,179.13ZM220.25,153.4q8.49,7.68,8.49,22.71a39.9,39.9,0,0,1-2.61,14.46A50.79,50.79,0,0,1,218.2,204,98.5,98.5,0,0,1,207,215.61a408.67,408.67,0,0,1,65.43-7.28,90.47,90.47,0,0,0,3.91-8.53q5-12.59,5-28.76a70.89,70.89,0,0,0-5.15-27.53,56.72,56.72,0,0,0-14.95-21,67.66,67.66,0,0,0-23.93-13.32,102,102,0,0,0-31.94-4.65q-38.4,0-68.95,19.77v45.42q27.62-24,57.84-24Q211.74,145.72,220.25,153.4ZM185,290.31a57.78,57.78,0,0,1,8.82-10.38,145.56,145.56,0,0,1,12.82-10.78q7.28-5.47,15.12-11,11.6-8,22.38-16.58,3-2.35,5.71-4.83a331.29,331.29,0,0,0-115.55,49.51q-1.62,3.22-3,6.62-6.06,14.3-6.05,32.27v17.64H281V300H181.69A17.91,17.91,0,0,1,185,290.31Zm176.8-60.1V342.75h51.46V237.91A447.63,447.63,0,0,0,361.76,230.21Z"/><path class="b" d="M0,342.88H44.07c35.73-40.11,192.63-191,450-81.87C228.65,146.62,42.51,302.09,0,342.88Z"/></svg>